<?xml version="1.0" encoding="utf-8" ?><svg xmlns="http://www.w3.org/2000/svg" xmlns:xlink="http://www.w3.org/1999/xlink" width="1024" height="1024" viewBox="0 0 1024 1024"><path fill="#242323" d="M551.648 51.1471C556.325 50.977 560.769 51.6074 564.168 55.0785C569.652 60.6772 573.931 68.1162 578.219 74.6608L606.657 118.6C610.011 123.795 616.296 134.558 619.784 138.843C637.006 131.881 654.463 125.766 671.767 119.049C687.584 112.91 703.231 106.129 719.221 100.463C724.119 98.7276 727.953 97.6845 732.838 100.175C734.915 101.233 736.72 102.558 737.876 104.623C742.476 112.844 744.902 126.504 747.484 135.883C750.449 146.65 753.801 157.319 756.88 168.056C759.01 175.48 760.786 183.032 763.087 190.4C763.504 191.736 764.045 193.815 765.498 194.296C768.602 195.324 820.049 181.842 828.257 179.721C834.913 178.001 844.316 174.532 851.063 174.528C853.208 174.527 855.49 175.51 857.337 176.533C860.777 178.438 863.591 181.48 864.651 185.322C866.847 193.282 864.363 210.216 863.595 218.868C862.797 227.853 858.79 286.019 860.343 291.11C861.808 292.72 884.021 294.717 887.774 295.206L935.197 301.779C943.402 302.897 953.264 303.677 961.191 305.933C964.26 307.002 967.147 310.395 968.397 313.209C972.403 322.223 964.578 331.259 960.828 339.501C952.019 359.154 942.912 378.672 933.51 398.049C929.983 405.375 924.342 414.429 921.617 421.828C928.923 429.995 939.915 436.866 948.45 444.015C962.629 455.891 978.555 466.032 992.426 478.291C995.398 480.917 996.175 484.503 996.11 488.288C996.364 493.493 991.823 497.957 988.321 501.284C973.501 515.365 958.644 529.408 943.943 543.611C939.9 547.517 935.344 550.934 931.328 554.912L930.907 555.334L971.274 589.768C978.194 595.662 987.228 601.863 992.748 609.099C994.155 610.943 994.682 612.977 994.923 615.266C995.22 618.089 995.153 621.194 993.768 623.742C990.605 629.559 961.166 654.559 953.745 660.888C949.867 664.196 945.169 667.425 941.956 671.369C941.849 671.5 941.747 671.635 941.643 671.768C946.472 679.615 954.048 686.383 959.813 693.632C968.434 704.471 979.025 714.544 987.074 725.744C989.499 729.119 989.418 737.408 986.444 740.507C970.733 756.881 948.194 769.037 931.982 784.758L931.385 785.344C931.915 797.655 934.62 812.27 936.357 824.614C938.959 843.103 931.986 844.734 918.424 854.754L896.188 871.206C883.873 880.5 871.389 889.567 858.741 898.403C853.973 901.725 848.066 906.315 843.088 909.074C805.353 929.985 767.796 948.476 726.215 960.446C690.916 970.607 655.94 981.672 619.415 987.231C612.695 988.253 605.909 989.82 599.117 990.368C587.013 992.057 574.536 993.017 562.32 993.544C547.119 994.201 531.756 993.776 516.535 993.756C506.509 993.742 496.243 994.291 486.238 993.831C484.134 993.734 481.861 993.563 479.927 992.67C477.016 991.325 474.108 988.508 473.021 985.45C469.361 975.149 472.32 926.101 474.746 914.013C475.78 908.861 477.57 904.27 479.902 899.58C471.516 890.534 460.433 880.797 451.342 872.216L411.778 834.316C406.353 835.428 398.545 837.826 392.761 839.258C362.28 846.783 332.19 855.813 302.601 866.313C288.551 871.236 277.705 876.786 262.837 881.159C256.425 879.838 246.726 876.582 240.31 874.644L204.548 864.101C194.956 861.223 185.316 858.51 175.631 855.963C169.964 854.473 146.814 849.361 144.186 845.276C139.219 837.559 133.45 828.181 128.354 820.353C118.778 805.897 108.953 791.607 98.8831 777.491C93.9292 770.612 88.78 763.875 83.442 757.29C81.4136 754.773 70.5429 742.258 70.0769 740.743C63.932 720.76 61.3688 683.987 61.1982 664.764C60.3019 614.934 61.8145 565.089 65.7305 515.404C66.1757 509.626 66.5693 503.403 66.7207 497.606C67.0015 486.848 73.4884 482.331 80.3034 474.964C90.2068 464.422 100.279 454.04 110.516 443.821C137.346 416.547 164.758 389.852 192.732 363.754C201.254 356.019 209.889 348.411 218.635 340.931C223.273 336.912 229.428 331.873 233.616 327.555L234.137 327.013C235.312 322.391 235.316 318.145 235.955 313.48C237.441 302.619 238.262 291.786 239.369 280.888C242.063 255.651 244.936 230.433 247.988 205.237C249.008 196.384 248.933 184.372 251.302 176.192C256.942 156.715 278.631 169.54 289.195 174.222L320.522 188.012C326.661 190.752 334.867 194.748 341.062 196.835L341.835 197.092C343.568 193.112 345.056 189.072 346.539 184.995C358.616 151.793 370.994 118.627 382.815 85.3687C384.828 79.7053 394.631 75.7741 400.047 77.8803C406.84 80.5222 413.296 85.5548 419.671 89.1117C438.529 100.16 457.247 111.396 476.074 122.48C476.812 122.777 478.626 123.66 479.387 122.928C502.011 101.152 522.341 76.7976 544.729 54.7697C546.731 52.8001 549.134 51.9741 551.648 51.1471ZM468.646 328.288C464.658 326.912 459.365 326.365 455.144 325.642C445.24 323.945 435.052 322.887 425.16 321.2L334.613 306.123C320.339 303.893 307.725 301.139 293.058 300.07C282.327 307.821 273.842 319.619 265.096 329.409C251.945 344.128 238.212 357.607 223.85 371.093C212.961 381.318 202.85 393.272 191.796 403.442C181.087 413.714 170.099 423.882 159.461 434.245C138.509 454.611 117.859 475.285 97.5169 496.26L97.6447 497.15C101.044 520.145 109.91 544.666 114.852 567.507C115.553 570.747 113.202 573.953 110.032 574.531C108.177 574.88 106.261 574.451 104.732 573.345C101.582 571.079 94.9198 563.746 91.1279 560.452C89.163 575.152 89.7816 588.05 89.3373 606.123C88.3654 645.657 86.8767 690.741 96.234 729.563C96.3136 729.894 99.3625 733.211 99.8985 733.77C105.631 729.271 119.009 715.598 124.604 713.033C129.107 713.021 129.96 713.442 133.196 716.858C139.591 723.607 158.798 751.888 165.236 755.588C166.303 755.449 166.328 755.49 166.98 754.716C172.385 748.306 187.346 714.316 193.697 713.167C198.506 712.296 203.28 716.663 206.731 719.477C222.382 732.241 237.526 746.738 254.41 757.866C263.899 742.106 271.623 724.053 280.752 707.97C283.014 703.985 285.269 698.891 289.594 696.873C293.321 696.473 299.429 702.763 302.157 705.13C315.276 716.511 328.081 729.305 341.918 739.756C345.171 735.729 348.306 729.522 350.988 724.863C356.561 715.23 362.063 705.557 367.494 695.843C369.708 691.95 371.69 687.846 374.248 684.195C375.965 681.746 379.649 682.382 382.279 682.555C393.212 690.568 404.397 698.154 415.699 705.632C420.504 708.811 430.684 716.615 435.407 718.376C439.575 711.489 443.335 701.793 446.621 694.261L461.287 661.355C462.679 658.249 470.141 639.276 473.86 639.595C480.682 640.18 492.448 649.389 498.446 653.354L530.27 674.246C534.405 676.937 545.989 684.539 550.177 686.223L579.437 632.741C584.842 622.764 590 612.486 596.191 603C598.104 600.067 601.747 599.295 604.735 600.875C622.842 610.448 640.961 620.12 658.997 629.842C662.905 631.948 670.56 637.167 674.193 638.473C678.115 633.104 681.948 626.041 685.497 620.276C695.276 604.388 704.331 588.058 713.766 571.961C725.387 552.359 736.785 532.625 747.958 512.764C751.32 506.71 757.394 496.762 760.057 490.651C758.447 483.029 752.081 466.293 749.267 457.892L730.149 399.727C726.664 389.397 720.074 374.352 720.075 364.044C728.818 355.756 737.449 352.926 746.287 346.76C741.751 342.557 736.984 338.677 732.279 334.668C698.284 305.703 662.829 278.65 627.9 250.855C626.492 249.734 624.026 247.851 622.53 247.001C617.055 249.72 606.544 257.362 600.826 261.012L558.967 287.258C532.927 303.748 505.775 319.225 480.389 336.632C460.621 350.187 442.039 364.714 421.643 377.6C402.997 389.38 384.055 400.734 365.547 412.661C354.727 419.579 344.121 426.827 333.743 434.393C325.236 440.498 316.727 446.63 307.804 452.123C305.641 453.454 302.342 454.77 299.811 453.71C296.779 452.513 295.307 447.411 297.504 444.964C301.074 440.988 306.321 438.054 310.793 435.14C320.886 428.561 330.279 421.009 340.256 414.271C374.891 390.881 411.429 370.207 445.273 345.667C449.859 342.339 465.756 331.29 468.646 328.288ZM822.944 522.792L822.094 522.841C815.204 523.21 808.576 521.946 801.747 521.714C792.458 521.399 783.251 521.148 773.981 520.318C767.77 519.762 767.99 509.786 765.336 507.245C761.16 510.717 747.619 536.032 743.936 542.54C732.913 561.975 721.397 581.16 710.341 600.574C703.409 612.745 696.921 625.198 689.076 636.856C686.462 640.74 681.508 651.093 677.312 652.393C672.361 651.773 663.079 646.375 658.305 643.842C647.195 637.942 636.115 631.985 625.067 625.971C619.453 622.91 609.795 617.281 604.19 615.163C599.681 622.661 595.15 631.958 590.915 639.775L569.693 678.216C565.878 685.177 562.195 692.813 557.913 699.481C555.959 702.523 551.873 703.931 548.738 701.831C526.306 687.595 504.402 672.367 481.954 658.116C480.482 657.182 478.301 656.088 477.243 658.111C474.685 662.592 472.435 668.373 470.363 673.154C464.63 686.344 458.774 699.48 452.796 712.56C450.017 718.617 444.305 734.143 438.201 736.282C434.38 736.118 422.729 726.928 419.134 724.381L397.022 709.039C393.073 706.251 385.485 700.4 381.143 698.965C377.714 705.122 350.907 755.574 346.898 757.058C344.898 757.799 341.865 757.655 340.04 756.544C336.072 754.129 332.552 750.538 329.101 747.455L306.45 726.953C302.255 723.117 297.866 718.625 293.189 715.463C288.982 720.729 285.049 728.856 281.88 734.912L268.642 760.212C266.57 764.171 263.852 769.815 261.325 773.322C255.971 780.752 243.091 767.274 238.527 763.498C229.456 755.941 220.333 748.449 211.157 741.02C207.086 737.774 200.76 732.568 196.512 730.069C189.565 743.757 181.106 757.311 173.037 770.48C166.752 780.736 161.408 773.414 156.25 768.408C151.115 763.425 128.504 730.837 125.586 730.722C121.765 732.328 111.627 740.996 110.047 744.491C110.22 747.67 119.735 758.836 122.295 762.407C128.87 771.506 135.315 780.699 141.629 789.982C144.427 794.173 162.136 822.21 163.378 822.799C176.971 829.238 215.266 838.462 229.73 842.623C236.207 844.479 242.616 846.566 248.944 848.88C251.943 849.961 258.199 852.443 261.015 853.085C267.273 851.606 283.028 844.417 290.304 841.723C305.419 837.054 320.208 831.29 335.477 826.735C359.403 819.531 383.815 813.333 408.131 807.593C414.258 806.146 422.71 808.748 429.046 808.319C445.723 807.191 462.303 806.587 478.986 805.95L589.231 801.998C595.237 801.785 601.373 800.982 607.43 800.755C631.687 799.874 655.959 799.439 680.233 799.448C690.505 786.959 699.548 773.41 709.117 760.339C729.241 732.517 749.72 704.953 770.549 677.655L788.331 654.836C791.998 650.164 796.888 640.256 803.799 644.248C804.91 645.909 805.555 646.877 804.941 649.012C793.194 689.864 780.617 730.612 767.451 771.046L759.098 796.49C758.096 799.63 756.633 803.095 755.996 806.308C755.641 808.099 756.054 809.863 757.067 811.369C760.851 816.988 776.566 822.335 775.347 829.842C774.086 837.614 712.128 889.342 713.7 896.783C717.114 900.968 743.009 919.246 749.27 923.916C759.39 919.811 770.177 915.786 779.887 910.829C802.875 899.095 826.999 888.623 847.511 872.754C859.542 863.446 872.35 855.191 884.429 845.956C890.556 841.201 904.205 831.99 908.385 826.395C907.253 811.32 905.028 796.346 904.179 781.246C903.984 777.767 903.735 774.244 903.198 770.796C899.563 751.047 895.243 731.399 891.269 711.718L870.691 613.472C864.933 585.715 858.471 558.109 851.312 530.681C850.345 527.055 845.016 507.198 843.555 504.801L843.024 504.448C835.802 508.595 829.497 517.513 822.944 522.792ZM794.652 328.624C789.094 326.024 780.251 324.755 775.989 321.119C774.291 316.705 774.968 272.357 775.288 265.643C768.955 263.817 760.929 263.799 754.284 263.094C739.318 261.505 724.426 259.298 709.435 258.012C705.845 257.702 700.377 257.371 697.678 254.874C696.058 250.878 696.991 241.741 696.977 236.965C690.685 236.144 656.823 232.188 653.571 230.011C649.695 222.474 653.383 166.431 652.98 155.185L652.107 155.476C608.526 170.194 616.086 185.264 588.148 140.686C580.296 128.216 572.353 115.803 564.321 103.448C562.177 100.133 554.731 87.2416 551.695 86.2794C544.592 92.7068 538.026 101.92 531.042 108.933C519.661 120.362 508.528 132.425 497.403 144.093C485.456 156.622 481.845 157.811 466.937 148.975C445.705 136.391 424.427 123.346 402.858 111.38C400.078 117.777 397.827 124.806 395.433 131.417L386.851 154.441C383.25 164.247 376.396 181.2 373.903 190.703C390.749 182.946 406.769 172.507 423.37 164.189C433.669 159.028 436.18 155.047 448.228 156.583C459.198 157.981 470.118 160.199 480.993 161.62L524.818 167.458C532.399 168.422 549.393 170.03 555.691 172.311C556.131 172.472 556.568 172.641 557.002 172.818C558.972 178.002 564.007 225.312 562.476 229.197C560.06 235.326 485.091 274.197 473.634 285.036C466.031 285.167 459.148 283.49 451.66 282.497C437.933 280.678 424.016 277.851 410.409 275.827L368.519 269.625C363.843 268.94 356.214 268.502 352.037 267.125C347.721 258.615 351.161 256.015 350.16 247.284C340.655 255.781 331.236 264.375 321.905 273.064C318.659 276.044 308.265 285.316 306.071 288.41C308.643 290.727 376.297 298.838 385.849 301.948C397.133 303.416 409.029 306.236 420.149 307.792C430.147 309.19 439.776 310.277 449.667 311.942C456.788 313.141 478.789 317.704 484.821 317.521C506.074 304.816 527.158 291.831 548.067 278.569C557.938 272.345 616.305 234.183 624.189 232.375C627.649 233.892 642.942 246.659 647.421 250.094C685.714 279.305 723.252 309.493 759.997 340.629C770.437 337.578 784.58 332.573 794.652 328.624ZM767.93 352.502C776.762 381.57 785.753 410.589 794.903 439.557C797.963 449.487 813.075 504.403 816.835 509.014L817.83 509.162C828.627 500.167 857.952 470.599 864.77 459.256C857.237 423.315 845.867 388.21 833.376 353.775C831.713 349.191 829.63 344.611 828.071 340.026C824.002 338.489 818.484 336.545 814.635 334.672C806.515 337.563 798.205 340.72 790.093 343.69C784.602 345.701 772.678 349.663 767.93 352.502ZM363.63 256.08L432.757 266.515C439.54 267.499 455.354 270.278 461.123 270.136L462.877 269.756C463.425 267.461 463.225 258.816 463.243 256.02C463.385 245.893 463.361 235.765 463.171 225.639C447.327 222.727 429.204 220.933 413.063 218.549L381.025 213.849C376.808 213.242 370.967 212.15 366.838 211.843C365.636 221.178 363.103 247.287 363.63 256.08ZM264.801 299.458C279.447 294.286 295.733 279.037 307.217 268.658C319.904 255.986 336.391 242.875 348.78 229.968C326.772 219.884 304.083 210.998 281.995 201.09C279.896 200.149 277.895 199.201 275.756 198.334C274.627 205.641 274.294 212.339 273.438 219.643C271.264 236.835 269.389 254.063 267.816 271.32C267.085 279.053 264.898 292.48 264.801 299.458ZM545.906 188.481L501.105 211.307C496.181 213.818 479.11 222.278 475.521 225.299C475.174 230.759 474.777 262.232 475.647 266.696C476.869 266.494 476.587 266.621 477.69 266.125C492.505 259.012 510.869 246.017 525.531 237.636C530.506 234.792 546.591 225.421 549.72 222.676C549.184 218.339 547.68 190.12 546.219 188.7C546.128 188.611 546.01 188.554 545.906 188.481ZM961.213 617.391L960.632 616.803C957.806 613.968 954.85 611.544 951.824 608.911C934.724 594.03 917.114 579.706 899.766 565.171C898.369 564 897.459 559.091 897.585 557.336C897.672 551.787 899.31 548.135 903.301 544.301L941.121 508.242C945.523 504.096 957.886 493.028 961.216 488.819C953.311 480.851 943.994 475.086 935.296 468.222C927.174 461.812 918.494 455.431 910.547 449.012C903.291 443.152 890.854 437.534 890.915 427.231C890.962 419.359 895.717 413.696 898.971 406.776L923.795 354.226C927.428 346.55 932.669 337.323 935.593 329.614L934.914 329.442C928.905 327.957 918.361 326.844 911.782 325.954L860.965 319.586C854.863 318.809 847.023 318.471 841.344 316.763C836.543 315.319 831.526 308.4 831.708 303.201C832.644 276.4 835.956 249.591 836.6 222.757C836.679 219.46 838.141 209.216 836.829 206.735C831.354 206.22 800.547 215.194 793.248 216.753C787.565 217.968 778.179 220.477 772.039 221.751C766.762 222.888 761.16 225.228 755.777 225.456C753.083 225.57 747.133 223.753 745.7 221.657C740.339 213.816 737.698 200.624 735.11 191.497L723.689 151.062C722.908 148.22 718.986 131.325 717.622 130.58C711.509 132.556 669.684 148.22 666.269 150.773C664.939 156.197 663.997 216.606 665.68 219.974C672.835 224.089 707.321 221.189 709.725 228.968C711.238 233.863 710.455 240.311 710.67 245.468C722.372 246.49 734.252 248.355 746.008 249.69C754.513 250.589 763.001 251.645 771.467 252.857C773.631 253.146 786.592 254.274 786.92 256.271C789.834 274.008 786.152 294.724 787.912 312.474C797.739 316.824 808.05 319.986 818.184 323.52C825.355 326.02 831.45 327.193 837.932 331.26C842.012 339.375 847.913 355.412 850.922 363.921C859.6 388.457 867.914 413.348 873.212 438.853C875.133 448.102 877.356 452.585 877.766 462.504C872.762 472.679 861.018 484.016 853.859 492.555C855.394 499.045 857.653 505.582 859.574 512.014C862.192 521.049 864.716 530.112 867.147 539.2C869.92 549.634 872.308 561.189 874.755 571.792C878.415 587.005 881.872 602.266 885.125 617.571L905.525 717.152C907.193 725.002 908.783 732.869 910.294 740.751C911.54 747.398 913.032 756.604 914.957 762.905C919.663 759.85 951.943 734.093 954.772 730.725C955.189 727.841 944.94 717.982 942.642 715.367C935.21 706.911 927.464 698.693 920.239 690.044C914.928 684.422 909.221 679.205 909.387 670.726C909.572 661.311 924.986 650.993 931.692 644.309C939.963 636.064 953.712 626.129 961.213 617.391ZM755.491 357.664C749.528 360.215 739.035 366.532 733.496 370.242C736.827 380.849 741.273 392.391 744.891 403.195L768.05 473.062C770.439 479.923 772.68 486.835 774.771 493.793C775.493 496.237 777.952 505.599 778.821 507.393C779.4 507.508 779.965 507.66 780.539 507.681C785.8 507.953 796.197 509.269 800.698 508.005L801.059 507.46C799.613 501.123 797.982 494.83 796.168 488.588C793.55 479.72 790.356 471.1 787.674 462.316L766.384 392.419C764.802 387.216 757.8 360.375 755.491 357.664ZM468.657 213.226C484.048 205.076 499.88 198.178 515.086 189.726C518.903 187.604 526.619 184.003 529.531 181.456C506.075 176.377 479.784 174.434 455.941 170.601C453.6 170.224 444.374 168.684 442.444 168.943C427.053 177.535 411.942 184.949 396.394 193.148C392.837 195.024 384.703 198.828 381.882 200.852C403.44 205.332 426.062 206.666 447.79 210.505C451.004 211.073 466.147 213.585 468.657 213.226ZM760.511 829.722C756.119 826.519 743.918 819.075 741.568 815.641C740.901 810.644 744.126 802.265 745.703 797.41C756.145 765.27 766.631 733.077 776.39 700.728C777.902 695.717 781.282 688.274 781.392 683.394C774.815 691.203 768.423 701.202 762.04 709.444C742.841 734.232 725.403 760.467 706.37 785.303C701.489 791.671 690.952 807.64 685.893 812.445C656.57 812.843 627.454 813.416 598.148 814.47L505.999 817.964C489.736 818.603 473.298 818.808 457.036 819.822C450.25 820.245 444.711 819.73 437.785 820.823L438.256 821.341C442.023 825.443 447.221 829.636 451.366 833.7C463.156 845.451 475.146 857 487.331 868.341C493.098 873.765 504.292 883.392 508.508 889.973C510.287 892.802 511.172 896.102 511.047 899.441C510.813 906.212 505.978 908.296 503.954 914.264C499.81 926.479 498.564 938.6 498.131 951.393C498.107 956.057 497.936 961.768 498.775 966.277C566.016 969.204 633.255 960.429 697.492 940.341C705.145 938.031 728.817 930.783 735.416 927.694L734.857 927.205C728.563 921.801 699.331 906.025 696.917 898.433C697.356 887.174 750.524 840.873 760.511 829.722Z"/><path fill="#242323" d="M581.41 315.908C628.018 314.358 667.073 350.85 668.688 397.455C670.303 444.06 633.866 483.166 587.264 484.847C540.568 486.53 501.367 450.006 499.749 403.308C498.131 356.61 534.711 317.46 581.41 315.908Z"/><path fill="#242323" d="M278.357 461.088C282.782 461.155 283.057 461.427 286.622 464.177C286.762 469.203 285.611 477.642 285.072 482.946C283.96 494.498 282.718 506.038 281.345 517.563C280.729 523.035 279.914 535.815 278.522 540.569C273.509 546.598 240.002 558.059 231.017 562.093C224.024 565.234 210.923 570.891 203.619 573.499C199.725 574.128 195.731 570.622 196.138 566.627C196.315 564.886 198.24 562.052 199.328 560.593C213.09 542.145 227.56 524.28 241.73 506.168L265.061 476.513C267.933 472.91 274.963 463.714 278.357 461.088Z"/><path fill="#242323" d="M320.052 330.762C323.835 329.429 327.98 331.435 329.28 335.23C330.581 339.025 328.538 343.152 324.732 344.42C320.973 345.671 316.907 343.659 315.623 339.911C314.338 336.163 316.315 332.08 320.052 330.762Z"/><path fill="#242323" d="M359.696 335.231C363.546 334.663 367.151 337.256 367.839 341.087C368.526 344.918 366.047 348.602 362.24 349.409C359.669 349.954 357.005 349.056 355.289 347.065C353.573 345.075 353.076 342.308 353.993 339.845C354.91 337.382 357.096 335.614 359.696 335.231Z"/><path fill="#242323" d="M602.92 182.848C614.473 180.573 625.667 188.146 627.853 199.716C630.039 211.286 622.38 222.421 610.793 224.518C599.333 226.592 588.344 219.034 586.182 207.589C584.02 196.145 591.493 185.099 602.92 182.848ZM598.275 208.511C601.891 212.46 603.886 213.707 609.494 213.048C620.43 207.996 617.859 193.492 603.955 194.1C596.833 197.47 596.851 201.273 598.275 208.511Z"/><path fill="#242323" d="M815.393 388.005C830.4 384.916 845.054 394.633 848.048 409.66C851.042 424.686 841.232 439.278 826.187 442.177C811.276 445.05 796.843 435.347 793.875 420.454C790.908 405.562 800.52 391.067 815.393 388.005ZM824.076 430.116C842.204 422.753 836.705 399.398 819.791 400.03C814.915 401.631 811.677 402.963 809.079 407.999C807.074 411.94 806.76 416.527 808.208 420.706C809.467 424.467 812.228 427.538 815.834 429.189C818.632 430.504 820.982 430.261 824.076 430.116Z"/><path fill="#242323" d="M815.226 408.126C816.608 407.971 817.68 407.932 819.054 407.888C821.526 408.851 827.162 418.995 826.556 421.861C824.947 422.625 824.989 422.598 823.222 422.877C817.848 421.636 815.172 412.976 815.226 408.126Z"/></svg>